# xmcd
#
# Track frame offsets:
#	150
#	30666
#	60997
#	84457
#	112541
#	134385
#	164112
#	184916
#	209056
#	234062
#	256439
#	278979
#	303448
#
# Disc length: 4280 seconds
#
# Revision: 0
# Processed by: cddbd v1.5.1PL0 Copyright (c) Steve Scherf et al.
# Submitted via: dBpowerAMP V4.0
#
DISCID=b010b60d
DTITLE=Åsa Larsson - Det blod som spillts - CD-BOK 08/09
DYEAR=2004
DGENRE=CD-BOK
TTITLE0=08.01
TTITLE1=08.02
TTITLE2=08.03
TTITLE3=08.04
TTITLE4=08.05
TTITLE5=08.06
TTITLE6=08.07
TTITLE7=08.08
TTITLE8=08.09
TTITLE9=08.10
TTITLE10=08.11
TTITLE11=08.12
TTITLE12=08.13
EXTD=
EXTT0=
EXTT1=
EXTT2=
EXTT3=
EXTT4=
EXTT5=
EXTT6=
EXTT7=
EXTT8=
EXTT9=
EXTT10=
EXTT11=
EXTT12=
PLAYORDER=
